<svg width="22" height="11" viewBox="0 0 22 11" fill="none" xmlns="http://www.w3.org/2000/svg">
<path d="M17.75 5.25C17.75 5.44891 17.671 5.63968 17.5303 5.78033C17.3897 5.92098 17.1989 6 17 6H5C4.80109 6 4.61032 5.92098 4.46967 5.78033C4.32902 5.63968 4.25 5.44891 4.25 5.25C4.25 5.05109 4.32902 4.86032 4.46967 4.71967C4.61032 4.57902 4.80109 4.5 5 4.5H17C17.1989 4.5 17.3897 4.57902 17.5303 4.71967C17.671 4.86032 17.75 5.05109 17.75 5.25ZM20.75 0H1.25C1.05109 0 0.860322 0.0790178 0.71967 0.21967C0.579018 0.360322 0.5 0.551088 0.5 0.75C0.5 0.948912 0.579018 1.13968 0.71967 1.28033C0.860322 1.42098 1.05109 1.5 1.25 1.5H20.75C20.9489 1.5 21.1397 1.42098 21.2803 1.28033C21.421 1.13968 21.5 0.948912 21.5 0.75C21.5 0.551088 21.421 0.360322 21.2803 0.21967C21.1397 0.0790178 20.9489 0 20.75 0ZM13.25 9H8.75C8.55109 9 8.36032 9.07902 8.21967 9.21967C8.07902 9.36032 8 9.55109 8 9.75C8 9.94891 8.07902 10.1397 8.21967 10.2803C8.36032 10.421 8.55109 10.5 8.75 10.5H13.25C13.4489 10.5 13.6397 10.421 13.7803 10.2803C13.921 10.1397 14 9.94891 14 9.75C14 9.55109 13.921 9.36032 13.7803 9.21967C13.6397 9.07902 13.4489 9 13.25 9Z" fill="#4C4E4D"/>
</svg>
