<svg width="18" height="14" viewBox="0 0 18 14" fill="none" xmlns="http://www.w3.org/2000/svg">
<path d="M18 7.12769C18 7.3266 17.921 7.51736 17.7803 7.65802C17.6397 7.79867 17.4489 7.87769 17.25 7.87769H0.75C0.551088 7.87769 0.360322 7.79867 0.21967 7.65802C0.0790178 7.51736 0 7.3266 0 7.12769C0 6.92877 0.0790178 6.73801 0.21967 6.59736C0.360322 6.4567 0.551088 6.37769 0.75 6.37769H17.25C17.4489 6.37769 17.6397 6.4567 17.7803 6.59736C17.921 6.73801 18 6.92877 18 7.12769ZM0.75 1.87769H17.25C17.4489 1.87769 17.6397 1.79867 17.7803 1.65802C17.921 1.51736 18 1.3266 18 1.12769C18 0.928773 17.921 0.738008 17.7803 0.597356C17.6397 0.456703 17.4489 0.377686 17.25 0.377686H0.75C0.551088 0.377686 0.360322 0.456703 0.21967 0.597356C0.0790178 0.738008 0 0.928773 0 1.12769C0 1.3266 0.0790178 1.51736 0.21967 1.65802C0.360322 1.79867 0.551088 1.87769 0.75 1.87769ZM17.25 12.3777H0.75C0.551088 12.3777 0.360322 12.4567 0.21967 12.5974C0.0790178 12.738 0 12.9288 0 13.1277C0 13.3266 0.0790178 13.5174 0.21967 13.658C0.360322 13.7987 0.551088 13.8777 0.75 13.8777H17.25C17.4489 13.8777 17.6397 13.7987 17.7803 13.658C17.921 13.5174 18 13.3266 18 13.1277C18 12.9288 17.921 12.738 17.7803 12.5974C17.6397 12.4567 17.4489 12.3777 17.25 12.3777Z" fill="black"/>
</svg>
