<svg width="584" height="793" viewBox="0 0 584 793" fill="none" xmlns="http://www.w3.org/2000/svg">
<path opacity="0.2" d="M-44.7227 -12.5449C-36.6076 -14.7683 -28.0908 -15.0998 -19.8271 -13.5156L-19.749 -13.501L-19.6699 -13.4912C15.6409 -9.01948 44.6959 9.13783 72.1299 31.0996L72.1318 31.1006C93.8925 48.49 109.292 63.0555 123.792 81.4619C138.317 99.8996 151.996 122.262 170.25 155.321L172.444 159.295L174.63 155.316C180.645 144.367 186.08 133.755 192.159 123.399L192.16 123.397C212.05 89.4165 237.137 66.0412 266.732 51.9102C296.346 37.7706 330.643 32.8056 369.06 35.9297L369.064 35.9307C378.183 36.6523 387.698 37.8726 397.091 38.0146C402.256 38.4986 407.415 37.0236 411.544 33.8779C415.67 30.7341 418.459 26.1541 419.365 21.0498C420.563 16.4042 422.635 14.0232 424.939 13.0859C427.307 12.1234 430.688 12.3649 435.15 14.6738C452.798 23.8819 460.181 40.0689 463.603 59.2158V59.2168C468.926 89.1898 463.035 118.088 453.567 146.759L453.56 146.785L453.552 146.811C437.009 200.812 406.461 249.469 365.016 287.836L364.908 287.937L364.812 288.048C363.805 289.228 362.859 290.459 361.977 291.735L359.736 294.976L363.622 295.623C372.471 297.098 380.706 298.351 388.812 299.762L392.279 300.377C443.647 309.803 486.111 332.689 514.407 377.788C529.456 403.537 539.745 431.786 544.783 461.183L544.784 461.19C546.016 468.25 549.004 474.885 553.472 480.487L553.659 480.723L553.896 480.906C558.495 484.464 564.143 486.39 569.953 486.389C574.801 486.904 577.801 488.292 579.484 490.265C581.132 492.195 581.952 495.201 581.247 499.985C580.143 506.864 577.6 513.432 573.784 519.261C569.968 525.089 564.966 530.047 559.104 533.811L559.059 533.84C538.653 547.567 514.898 555.485 490.338 556.748L490.274 556.751L490.212 556.758C426.556 563.272 362.384 551.037 305.588 521.561H305.587C304.796 521.147 304 520.796 303.104 520.406C302.195 520.01 301.134 519.554 299.726 518.898L294.961 516.682L296.247 521.777C303.632 551.018 305.39 581.396 301.428 611.293C293.309 660.822 265.567 697.483 225.231 725.945L225.219 725.954L225.206 725.964C215.98 732.65 206.463 737.791 196.748 744.13L196.73 744.142C190.174 748.502 185.831 752.431 184.06 757.616C182.294 762.783 183.282 768.621 185.675 776.206L185.715 776.332L185.768 776.453C186.334 777.752 186.592 779.164 186.521 780.579C186.449 781.994 186.051 783.374 185.356 784.609C184.662 785.845 183.692 786.902 182.521 787.698C181.349 788.495 180.009 789.009 178.604 789.2L178.489 789.216L178.376 789.242C171.597 790.817 164.558 790.914 157.738 789.528C150.918 788.142 144.476 785.305 138.85 781.209L138.805 781.177L138.759 781.146C121.487 769.702 107.596 753.839 98.5322 735.207L98.5117 735.166L98.4902 735.125L97.7051 733.643C64.6367 670.846 53.211 598.874 65.2295 528.896L65.2656 528.686V528.473C65.2656 527.56 65.3759 526.621 65.5479 525.475C65.7137 524.369 65.9462 523.016 66.1201 521.521L66.6494 516.966L62.5342 518.988C47.0003 526.621 32.7436 534.319 17.7402 540.721L17.7383 540.722C-16.36 555.303 -48.721 559.288 -79.543 553.981C-110.372 548.674 -139.826 534.042 -168.053 511.133C-171.37 508.279 -174.692 505.291 -178.036 502.272C-181.382 499.252 -184.753 496.201 -188.126 493.267L-188.145 493.25L-188.164 493.234L-189.278 492.319C-194.801 487.866 -199.638 485.236 -204.852 485.013C-210.403 484.775 -215.789 487.294 -222.214 491.68L-222.318 491.751L-222.415 491.832C-223.555 492.791 -224.903 493.472 -226.353 493.818C-227.802 494.164 -229.311 494.167 -230.762 493.826C-232.212 493.485 -233.564 492.811 -234.707 491.855C-235.851 490.9 -236.756 489.691 -237.35 488.324L-237.396 488.216L-237.454 488.112L-237.744 487.578C-240.71 482.044 -242.576 475.984 -243.233 469.735C-243.912 463.286 -243.291 456.765 -241.407 450.56L-241.402 450.544L-241.397 450.529C-234.46 426.596 -220.521 405.284 -201.373 389.338L-201.336 389.308L-201.301 389.275C-148.831 342.063 -88.2001 311.695 -17.709 304.032C-16.8559 304.011 -16.074 303.843 -15.334 303.67C-14.5084 303.477 -13.5932 303.243 -12.252 302.987L-7.78125 302.136L-10.8975 298.819C-18.2098 291.037 -24.6947 284.152 -30.9766 277.201L-30.9912 277.184L-31.0068 277.167L-32.1729 275.917C-56.58 249.618 -75.68 220.604 -83.1426 185.042L-83.1436 185.041L-83.5479 183.058C-91.7674 141.455 -82.9008 102.301 -65.2949 64.1357C-61.9456 57.4442 -58.9908 50.5627 -56.4443 43.5264C-54.4686 38.6938 -54.35 33.3006 -56.1143 28.3857C-57.8695 23.4962 -61.3635 19.4266 -65.9268 16.9502C-70.0324 14.2417 -71.6584 11.3797 -71.7705 8.76074C-71.8857 6.06842 -70.4426 2.8096 -66.6123 -0.712891C-60.3151 -6.27662 -52.827 -10.3244 -44.7227 -12.5449Z" stroke="#218C21" stroke-width="5"/>
</svg>
