<svg width="27" height="27" viewBox="0 0 27 27" fill="none" xmlns="http://www.w3.org/2000/svg">
<path d="M13.2765 0.514771C10.7053 0.514771 8.19192 1.27721 6.05408 2.70567C3.91624 4.13412 2.25 6.16445 1.26606 8.53989C0.282122 10.9153 0.0246786 13.5292 0.526286 16.0509C1.02789 18.5727 2.26602 20.8891 4.08411 22.7072C5.90219 24.5252 8.21857 25.7634 10.7403 26.265C13.2621 26.7666 15.8759 26.5091 18.2514 25.5252C20.6268 24.5413 22.6571 22.875 24.0856 20.7372C25.5141 18.5993 26.2765 16.0859 26.2765 13.5148C26.2729 10.0681 24.902 6.76359 22.4649 4.3264C20.0277 1.88922 16.7232 0.51841 13.2765 0.514771ZM18.2765 14.5148H8.27649C8.01128 14.5148 7.75692 14.4094 7.56939 14.2219C7.38185 14.0343 7.27649 13.78 7.27649 13.5148C7.27649 13.2496 7.38185 12.9952 7.56939 12.8077C7.75692 12.6201 8.01128 12.5148 8.27649 12.5148H18.2765C18.5417 12.5148 18.7961 12.6201 18.9836 12.8077C19.1711 12.9952 19.2765 13.2496 19.2765 13.5148C19.2765 13.78 19.1711 14.0343 18.9836 14.2219C18.7961 14.4094 18.5417 14.5148 18.2765 14.5148Z" fill="#4C4E4D"/>
</svg>
