<svg width="27" height="27" viewBox="0 0 27 27" fill="none" xmlns="http://www.w3.org/2000/svg">
<path d="M13.2765 0.514648C10.7053 0.514648 8.19192 1.27709 6.05408 2.70554C3.91624 4.134 2.25 6.16432 1.26606 8.53976C0.282122 10.9152 0.0246786 13.5291 0.526286 16.0508C1.02789 18.5726 2.26602 20.889 4.08411 22.707C5.90219 24.5251 8.21857 25.7632 10.7403 26.2649C13.2621 26.7665 15.8759 26.509 18.2514 25.5251C20.6268 24.5411 22.6571 22.8749 24.0856 20.7371C25.5141 18.5992 26.2765 16.0858 26.2765 13.5146C26.2722 10.0682 24.9012 6.76405 22.4641 4.32701C20.0271 1.88997 16.723 0.518948 13.2765 0.514648ZM18.2765 14.5146H14.2765V18.5146C14.2765 18.7799 14.1711 19.0342 13.9836 19.2218C13.7961 19.4093 13.5417 19.5146 13.2765 19.5146C13.0113 19.5146 12.7569 19.4093 12.5694 19.2218C12.3819 19.0342 12.2765 18.7799 12.2765 18.5146V14.5146H8.27649C8.01128 14.5146 7.75692 14.4093 7.56939 14.2218C7.38185 14.0342 7.27649 13.7799 7.27649 13.5146C7.27649 13.2494 7.38185 12.9951 7.56939 12.8075C7.75692 12.62 8.01128 12.5146 8.27649 12.5146H12.2765V8.51465C12.2765 8.24943 12.3819 7.99508 12.5694 7.80754C12.7569 7.62001 13.0113 7.51465 13.2765 7.51465C13.5417 7.51465 13.7961 7.62001 13.9836 7.80754C14.1711 7.99508 14.2765 8.24943 14.2765 8.51465V12.5146H18.2765C18.5417 12.5146 18.7961 12.62 18.9836 12.8075C19.1711 12.9951 19.2765 13.2494 19.2765 13.5146C19.2765 13.7799 19.1711 14.0342 18.9836 14.2218C18.7961 14.4093 18.5417 14.5146 18.2765 14.5146Z" fill="#4C4E4D"/>
</svg>
