<svg width="345" height="434" viewBox="0 0 345 434" fill="none" xmlns="http://www.w3.org/2000/svg">
<path opacity="0.2" d="M201.277 4.45508C209.392 2.23167 217.909 1.90022 226.173 3.48438L226.251 3.49902L226.33 3.50879C261.641 7.98052 290.696 26.1378 318.13 48.0996L318.132 48.1006C339.892 65.49 355.292 80.0555 369.792 98.4619C384.317 116.9 397.996 139.262 416.25 172.321L418.444 176.295L420.63 172.316C426.645 161.367 432.08 150.755 438.159 140.399L438.16 140.397C458.05 106.417 483.137 83.0412 512.732 68.9102C542.346 54.7706 576.643 49.8056 615.06 52.9297L615.064 52.9307C624.183 53.6523 633.698 54.8726 643.091 55.0146C648.256 55.4986 653.415 54.0236 657.544 50.8779C661.67 47.7341 664.459 43.1541 665.365 38.0498C666.563 33.4042 668.635 31.0232 670.939 30.0859C673.307 29.1234 676.688 29.3649 681.15 31.6738C698.798 40.8819 706.181 57.0689 709.603 76.2158V76.2168C714.926 106.19 709.035 135.088 699.567 163.759L699.56 163.785L699.552 163.811C683.009 217.812 652.461 266.469 611.016 304.836L610.908 304.937L610.812 305.048C609.805 306.228 608.859 307.459 607.977 308.735L605.736 311.976L609.622 312.623C618.471 314.098 626.706 315.351 634.812 316.762L638.279 317.377C689.647 326.803 732.111 349.689 760.407 394.788C775.456 420.537 785.745 448.786 790.783 478.183L790.784 478.19C792.016 485.25 795.004 491.885 799.472 497.487L799.659 497.723L799.896 497.906C804.495 501.464 810.143 503.39 815.953 503.389C820.801 503.904 823.801 505.292 825.484 507.265C827.132 509.195 827.952 512.201 827.247 516.985C826.143 523.864 823.6 530.432 819.784 536.261C815.968 542.089 810.966 547.047 805.104 550.811L805.059 550.84C784.653 564.567 760.898 572.485 736.338 573.748L736.274 573.751L736.212 573.758C672.556 580.272 608.384 568.037 551.588 538.561H551.587C550.796 538.147 550 537.796 549.104 537.406C548.195 537.01 547.134 536.554 545.726 535.898L540.961 533.682L542.247 538.777C549.632 568.018 551.39 598.396 547.428 628.293C539.309 677.822 511.567 714.483 471.231 742.945L471.219 742.954L471.206 742.964C461.98 749.65 452.463 754.791 442.748 761.13L442.73 761.142C436.174 765.502 431.831 769.431 430.06 774.616C428.294 779.783 429.282 785.621 431.675 793.206L431.715 793.332L431.768 793.453C432.334 794.752 432.592 796.164 432.521 797.579C432.449 798.994 432.051 800.374 431.356 801.609C430.662 802.845 429.692 803.902 428.521 804.698C427.349 805.495 426.009 806.009 424.604 806.2L424.489 806.216L424.376 806.242C417.597 807.817 410.558 807.914 403.738 806.528C396.918 805.142 390.476 802.305 384.85 798.209L384.805 798.177L384.759 798.146C367.487 786.702 353.596 770.839 344.532 752.207L344.512 752.166L344.49 752.125L343.705 750.643C310.637 687.846 299.211 615.874 311.229 545.896L311.266 545.686V545.473C311.266 544.56 311.376 543.621 311.548 542.475C311.714 541.369 311.946 540.016 312.12 538.521L312.649 533.966L308.534 535.988C293 543.621 278.744 551.319 263.74 557.721L263.738 557.722C229.64 572.303 197.279 576.288 166.457 570.981C135.628 565.674 106.174 551.042 77.9473 528.133C74.6304 525.279 71.3078 522.291 67.9639 519.272C64.6176 516.252 61.2468 513.201 57.874 510.267L57.8555 510.25L57.8359 510.234L56.7217 509.319C51.1988 504.866 46.3615 502.236 41.1484 502.013C35.5969 501.775 30.2109 504.294 23.7861 508.68L23.6816 508.751L23.585 508.832C22.4449 509.791 21.0966 510.472 19.6475 510.818C18.1984 511.164 16.6887 511.167 15.2383 510.826C13.7878 510.485 12.4365 509.811 11.293 508.855C10.1494 507.9 9.24412 506.691 8.65039 505.324L8.60352 505.216L8.5459 505.112L8.25586 504.578C5.28951 499.044 3.4243 492.984 2.7666 486.735C2.08777 480.286 2.70856 473.765 4.59277 467.56L4.59766 467.544L4.60254 467.529C11.5405 443.596 25.4794 422.284 44.627 406.338L44.6641 406.308L44.6992 406.275C97.1691 359.063 157.8 328.695 228.291 321.032C229.144 321.011 229.926 320.843 230.666 320.67C231.492 320.477 232.407 320.243 233.748 319.987L238.219 319.136L235.103 315.819C227.79 308.037 221.305 301.152 215.023 294.201L215.009 294.184L214.993 294.167L213.827 292.917C189.42 266.618 170.32 237.604 162.857 202.042L162.856 202.041L162.452 200.058C154.233 158.455 163.099 119.301 180.705 81.1357C184.054 74.4442 187.009 67.5627 189.556 60.5264C191.531 55.6938 191.65 50.3006 189.886 45.3857C188.131 40.4962 184.636 36.4266 180.073 33.9502C175.968 31.2417 174.342 28.3797 174.229 25.7607C174.114 23.0684 175.557 19.8096 179.388 16.2871C185.685 10.7234 193.173 6.67558 201.277 4.45508Z" stroke="#218C21" stroke-width="5"/>
</svg>
