<svg width="20" height="20" viewBox="0 0 20 20" fill="none" xmlns="http://www.w3.org/2000/svg">
<path d="M19.4156 18.4693L14.7215 13.7762C16.0821 12.1428 16.7605 10.0478 16.6157 7.92691C16.4709 5.80604 15.514 3.82265 13.9441 2.38932C12.3742 0.955989 10.3121 0.183083 8.18689 0.231383C6.06164 0.279683 4.03682 1.14547 2.53365 2.64864C1.03048 4.15181 0.164692 6.17663 0.116393 8.30188C0.0680926 10.4271 0.840999 12.4892 2.27433 14.0591C3.70766 15.629 5.69105 16.5859 7.81192 16.7307C9.93278 16.8755 12.0278 16.1971 13.6612 14.8365L18.3544 19.5306C18.424 19.6003 18.5068 19.6556 18.5978 19.6933C18.6889 19.731 18.7864 19.7504 18.885 19.7504C18.9835 19.7504 19.0811 19.731 19.1722 19.6933C19.2632 19.6556 19.3459 19.6003 19.4156 19.5306C19.4853 19.4609 19.5406 19.3782 19.5783 19.2871C19.616 19.1961 19.6354 19.0985 19.6354 19C19.6354 18.9014 19.616 18.8038 19.5783 18.7128C19.5406 18.6218 19.4853 18.539 19.4156 18.4693ZM1.63498 8.49997C1.63498 7.16495 2.03086 5.8599 2.77256 4.74987C3.51426 3.63984 4.56847 2.77467 5.80187 2.26378C7.03527 1.75289 8.39247 1.61922 9.70184 1.87967C11.0112 2.14012 12.2139 2.78299 13.158 3.727C14.102 4.671 14.7448 5.87374 15.0053 7.18311C15.2657 8.49248 15.1321 9.84968 14.6212 11.0831C14.1103 12.3165 13.2451 13.3707 12.1351 14.1124C11.025 14.8541 9.72 15.25 8.38498 15.25C6.59538 15.248 4.87964 14.5362 3.6142 13.2708C2.34876 12.0053 1.63696 10.2896 1.63498 8.49997Z" fill="black"/>
</svg>
