<svg width="1440" height="1024" viewBox="0 0 1440 1024" fill="none" xmlns="http://www.w3.org/2000/svg">
<path d="M1555.87 -338.406C1486.46 -337.321 1431.04 -280.246 1431.99 -210.836V-126.773C1431.99 13.7577 1320.82 124.924 1180.29 124.924H1012.41C735.878 124.924 509.015 351.787 509.015 628.319V795.954C509.015 936.485 397.848 1047.65 257.317 1047.65H89.4371C-187.095 1047.65 -413.958 1274.51 -413.958 1551.05V1718.68C-413.958 1859.21 -525.124 1970.38 -665.655 1970.38H-833.29C-1109.82 1970.38 -1336.68 2197.24 -1336.68 2473.77V2557.84C-1337.33 2603.22 -1313.48 2645.44 -1274.28 2668.32C-1235.08 2691.2 -1186.59 2691.2 -1147.39 2668.32C-1108.19 2645.44 -1084.35 2603.22 -1084.99 2557.84V2473.77C-1084.99 2333.24 -973.821 2222.08 -833.29 2222.08H-665.655C-389.124 2222.08 -162.26 1995.21 -162.26 1718.68V1551.05C-162.26 1410.52 -51.0939 1299.35 89.4371 1299.35H257.317C533.849 1299.35 760.713 1072.49 760.713 795.954V628.319C760.713 487.788 871.879 376.622 1012.41 376.622H1180.29C1456.82 376.622 1683.69 149.758 1683.69 -126.773V-210.836C1684.15 -244.853 1670.83 -277.61 1646.75 -301.643C1622.67 -325.675 1589.89 -338.937 1555.87 -338.406Z" fill="#D4B038" fill-opacity="0.1"/>
</svg>
