<svg width="24" height="25" viewBox="0 0 24 25" fill="none" xmlns="http://www.w3.org/2000/svg">
<path d="M21.5756 6.13045C21.5052 6.0462 21.4172 5.97844 21.3177 5.93195C21.2183 5.88546 21.1098 5.86137 21 5.86139H5.87625L5.30625 2.72733C5.27485 2.55451 5.1838 2.3982 5.04897 2.28564C4.91414 2.17308 4.74408 2.11141 4.56844 2.11139H2.25C2.05109 2.11139 1.86032 2.19041 1.71967 2.33106C1.57902 2.47171 1.5 2.66248 1.5 2.86139C1.5 3.0603 1.57902 3.25107 1.71967 3.39172C1.86032 3.53237 2.05109 3.61139 2.25 3.61139H3.9375L6.33375 16.7636C6.40434 17.1536 6.57671 17.5181 6.83344 17.8201C6.47911 18.1511 6.22336 18.5737 6.09455 19.0411C5.96575 19.5086 5.96892 20.0025 6.10371 20.4683C6.23851 20.934 6.49966 21.3533 6.85821 21.6797C7.21676 22.0061 7.6587 22.2268 8.13502 22.3173C8.61134 22.4079 9.10344 22.3647 9.55673 22.1927C10.01 22.0206 10.4068 21.7264 10.7031 21.3426C10.9994 20.9588 11.1836 20.5004 11.2353 20.0183C11.287 19.5363 11.2041 19.0493 10.9959 18.6114H15.2541C15.0863 18.9627 14.9995 19.3471 15 19.7364C15 20.2556 15.154 20.7631 15.4424 21.1948C15.7308 21.6264 16.1408 21.9629 16.6205 22.1616C17.1001 22.3603 17.6279 22.4122 18.1371 22.311C18.6463 22.2097 19.114 21.9597 19.4812 21.5925C19.8483 21.2254 20.0983 20.7577 20.1996 20.2485C20.3008 19.7393 20.2489 19.2115 20.0502 18.7318C19.8515 18.2522 19.5151 17.8422 19.0834 17.5538C18.6517 17.2653 18.1442 17.1114 17.625 17.1114H8.54719C8.37155 17.1114 8.20149 17.0497 8.06665 16.9371C7.93182 16.8246 7.84077 16.6683 7.80938 16.4955L7.51219 14.8614H18.3872C18.9141 14.8613 19.4243 14.6763 19.8288 14.3386C20.2333 14.0009 20.5064 13.532 20.6006 13.0136L21.7406 6.74545C21.7599 6.63711 21.7551 6.52586 21.7266 6.41957C21.6981 6.31329 21.6466 6.21458 21.5756 6.13045ZM9.75 19.7364C9.75 19.9589 9.68402 20.1764 9.5604 20.3614C9.43679 20.5464 9.26109 20.6906 9.05552 20.7758C8.84995 20.8609 8.62375 20.8832 8.40552 20.8398C8.18729 20.7964 7.98684 20.6892 7.8295 20.5319C7.67217 20.3745 7.56502 20.1741 7.52162 19.9559C7.47821 19.7376 7.50049 19.5114 7.58564 19.3059C7.67078 19.1003 7.81498 18.9246 7.99998 18.801C8.18499 18.6774 8.4025 18.6114 8.625 18.6114C8.92337 18.6114 9.20952 18.7299 9.4205 18.9409C9.63147 19.1519 9.75 19.438 9.75 19.7364ZM18.75 19.7364C18.75 19.9589 18.684 20.1764 18.5604 20.3614C18.4368 20.5464 18.2611 20.6906 18.0555 20.7758C17.85 20.8609 17.6238 20.8832 17.4055 20.8398C17.1873 20.7964 16.9868 20.6892 16.8295 20.5319C16.6722 20.3745 16.565 20.1741 16.5216 19.9559C16.4782 19.7376 16.5005 19.5114 16.5856 19.3059C16.6708 19.1003 16.815 18.9246 17 18.801C17.185 18.6774 17.4025 18.6114 17.625 18.6114C17.9234 18.6114 18.2095 18.7299 18.4205 18.9409C18.6315 19.1519 18.75 19.438 18.75 19.7364Z" fill="black"/>
</svg>
