<svg width="27" height="28" viewBox="0 0 27 28" fill="none" xmlns="http://www.w3.org/2000/svg">
<path d="M13.4999 3.14264C11.3305 3.14264 9.2098 3.78595 7.406 4.99121C5.6022 6.19647 4.19631 7.90955 3.36611 9.91383C2.53591 11.9181 2.31869 14.1236 2.74192 16.2513C3.16516 18.379 4.20983 20.3335 5.74384 21.8675C7.27784 23.4015 9.23229 24.4461 11.36 24.8694C13.4877 25.2926 15.6932 25.0754 17.6975 24.2452C19.7017 23.415 21.4148 22.0091 22.6201 20.2053C23.8254 18.4015 24.4687 16.2808 24.4687 14.1114C24.4656 11.2032 23.309 8.41508 21.2526 6.3587C19.1962 4.30233 16.4081 3.14571 13.4999 3.14264ZM18.3156 12.1771L12.4094 18.0833C12.331 18.1618 12.2379 18.224 12.1355 18.2665C12.0331 18.3089 11.9233 18.3308 11.8124 18.3308C11.7015 18.3308 11.5917 18.3089 11.4893 18.2665C11.3869 18.224 11.2938 18.1618 11.2155 18.0833L8.68421 15.5521C8.52589 15.3938 8.43694 15.179 8.43694 14.9551C8.43694 14.7312 8.52589 14.5165 8.68421 14.3582C8.84253 14.1999 9.05726 14.1109 9.28116 14.1109C9.50506 14.1109 9.7198 14.1999 9.87812 14.3582L11.8124 16.2935L17.1217 10.9832C17.2001 10.9048 17.2932 10.8426 17.3956 10.8002C17.498 10.7578 17.6078 10.7359 17.7187 10.7359C17.8295 10.7359 17.9393 10.7578 18.0417 10.8002C18.1442 10.8426 18.2372 10.9048 18.3156 10.9832C18.394 11.0616 18.4562 11.1546 18.4986 11.2571C18.541 11.3595 18.5629 11.4693 18.5629 11.5801C18.5629 11.691 18.541 11.8008 18.4986 11.9032C18.4562 12.0056 18.394 12.0987 18.3156 12.1771Z" fill="black"/>
</svg>
