<svg width="466" height="456" viewBox="0 0 466 456" fill="none" xmlns="http://www.w3.org/2000/svg">
<path d="M465.84 291.078C465.189 295.134 463.689 299.008 461.439 302.445C459.188 305.882 456.238 308.806 452.78 311.026C441.112 318.874 427.529 323.402 413.486 324.124C377.474 327.809 341.171 320.888 309.04 304.213C308.25 303.799 307.422 303.498 305.803 302.745C309.995 319.343 310.992 336.587 308.739 353.557C304.11 381.823 288.264 402.712 265.38 418.859C260.186 422.623 254.653 425.634 249.346 429.097C242.044 433.952 241.028 437.038 243.701 445.507C244.105 446.435 244.29 447.444 244.239 448.455C244.188 449.466 243.903 450.452 243.407 451.334C242.911 452.217 242.217 452.973 241.38 453.542C240.543 454.111 239.585 454.478 238.582 454.615C234.579 455.545 230.424 455.602 226.398 454.784C222.371 453.966 218.568 452.291 215.246 449.873C205.34 443.309 197.373 434.212 192.174 423.526C173.122 387.801 166.501 346.751 173.355 306.848C173.355 305.606 173.656 304.401 173.844 302.783C165.187 307.036 157.095 311.402 148.627 315.015C109.897 331.576 74.8558 324.161 42.8634 298.191C39.0996 294.954 35.3358 291.416 31.572 288.142C24.9477 282.609 21.2594 282.496 14.1458 287.351C13.3384 288.031 12.3835 288.512 11.3572 288.757C10.3308 289.003 9.26152 289.005 8.23427 288.763C7.20703 288.522 6.25024 288.044 5.44036 287.368C4.63048 286.691 3.98991 285.835 3.56948 284.867C1.71856 281.516 0.558194 277.827 0.15738 274.019C-0.243433 270.211 0.123234 266.362 1.23571 262.698C5.20896 248.993 13.1919 236.789 24.1574 227.657C53.8162 200.972 88.1421 183.771 128.076 179.443C128.754 179.443 129.394 179.18 130.974 178.878C126.872 174.512 123.221 170.636 119.683 166.721C105.569 151.666 94.3902 134.955 90.0618 114.329C84.9806 90.1653 90.0618 67.5072 100.186 45.5642C102.053 41.8375 103.7 38.0044 105.117 34.0846C106.104 31.6864 106.166 29.007 105.29 26.566C104.413 24.125 102.662 22.0964 100.375 20.8736C95.2558 17.5238 95.143 12.9696 99.7725 8.71648C103.472 5.44429 107.872 3.06415 112.635 1.75915C117.399 0.454152 122.398 0.259056 127.248 1.18886C147.46 3.74825 164.021 14.1364 179.49 26.5193C204.03 46.1288 214.418 59.528 234.931 96.6768C238.281 90.5794 241.367 84.5573 244.792 78.7234C267.375 40.1443 301.927 25.3903 345.436 28.9282C350.668 29.3423 355.9 30.0197 361.131 30.095C363.7 30.351 366.271 29.6233 368.324 28.0586C370.378 26.494 371.762 24.2088 372.197 21.664C373.665 15.9054 377.692 14.3623 383.074 17.1475C393.538 22.605 397.828 32.2028 399.786 43.1554C402.834 60.3184 399.447 76.8039 394.102 92.9882C384.742 123.542 367.457 151.073 344.006 172.781C343.471 173.407 342.969 174.061 342.501 174.738C348.146 175.679 353.415 176.47 358.61 177.41C387.741 182.755 411.98 195.778 428.127 221.522C436.668 236.13 442.507 252.156 445.365 268.833C446.016 272.565 447.596 276.072 449.957 279.033C452.316 280.858 455.218 281.839 458.2 281.819C464.034 282.421 466.706 285.244 465.84 291.078Z" fill="#228B22"/>
</svg>
