<svg width="427" height="418" viewBox="0 0 427 418" fill="none" xmlns="http://www.w3.org/2000/svg">
<path d="M426.854 266.768C426.257 270.485 424.883 274.035 422.82 277.184C420.758 280.334 418.055 283.013 414.887 285.047C404.195 292.239 391.749 296.387 378.881 297.049C345.883 300.425 312.618 294.084 283.176 278.805C282.452 278.425 281.693 278.149 280.21 277.46C284.052 292.668 284.964 308.469 282.9 324.019C278.658 349.919 264.139 369.06 243.17 383.855C238.411 387.304 233.341 390.063 228.478 393.236C221.788 397.685 220.856 400.513 223.305 408.273C223.676 409.123 223.845 410.048 223.798 410.975C223.752 411.901 223.491 412.804 223.036 413.613C222.582 414.422 221.946 415.114 221.179 415.636C220.412 416.157 219.534 416.494 218.614 416.619C214.947 417.471 211.14 417.524 207.45 416.774C203.761 416.024 200.276 414.489 197.232 412.274C188.155 406.26 180.854 397.923 176.091 388.132C158.633 355.397 152.567 317.783 158.847 281.219C158.847 280.081 159.123 278.977 159.295 277.494C151.363 281.391 143.948 285.392 136.188 288.703C100.7 303.877 68.5911 297.083 39.2762 273.286C35.8273 270.32 32.3785 267.079 28.9297 264.078C22.8598 259.008 19.4802 258.905 12.9619 263.354C12.2221 263.976 11.3471 264.418 10.4067 264.642C9.46622 264.867 8.48641 264.869 7.54514 264.648C6.60387 264.427 5.72715 263.989 4.98505 263.369C4.24295 262.749 3.65599 261.965 3.27075 261.078C1.57473 258.007 0.511478 254.626 0.144209 251.137C-0.22306 247.648 0.112921 244.121 1.13229 240.764C4.77302 228.205 12.0878 217.023 22.1357 208.656C49.3123 184.204 80.7654 168.443 117.357 164.476C117.978 164.476 118.564 164.235 120.013 163.959C116.254 159.958 112.908 156.406 109.667 152.819C96.7335 139.024 86.4905 123.711 82.5244 104.812C77.8685 82.6705 82.5244 61.9087 91.8017 41.8021C93.5124 38.3873 95.0209 34.875 96.3197 31.2832C97.2244 29.0857 97.2807 26.6305 96.4777 24.3938C95.6748 22.1571 94.0699 20.2983 91.9741 19.1779C87.2837 16.1084 87.1804 11.9353 91.4224 8.03816C94.8121 5.03982 98.8443 2.85888 103.209 1.6631C107.573 0.467311 112.154 0.288543 116.599 1.14053C135.119 3.48573 150.294 13.0045 164.468 24.3511C186.954 42.3194 196.473 54.5972 215.269 88.637C218.339 83.0499 221.167 77.5318 224.305 72.1861C244.998 36.8358 276.658 23.3165 316.526 26.5584C321.32 26.9377 326.114 27.5585 330.908 27.6275C333.262 27.8621 335.617 27.1952 337.499 25.7615C339.381 24.3278 340.649 22.2339 341.047 19.9021C342.392 14.6254 346.083 13.2114 351.014 15.7636C360.602 20.7644 364.534 29.5588 366.327 39.5949C369.121 55.3215 366.017 70.4272 361.119 85.2571C352.542 113.254 336.704 138.481 315.216 158.372C314.726 158.946 314.266 159.545 313.836 160.165C319.01 161.028 323.838 161.752 328.597 162.614C355.291 167.511 377.501 179.444 392.297 203.034C400.123 216.419 405.473 231.104 408.092 246.386C408.689 249.805 410.136 253.019 412.3 255.732C414.461 257.404 417.121 258.302 419.853 258.284C425.198 258.836 427.647 261.423 426.854 266.768Z" fill="#D4B038"/>
</svg>
