<?xml version="1.0" encoding="utf-8"?>
<!-- Generator: Adobe Illustrator 22.1.0, SVG Export Plug-In . SVG Version: 6.00 Build 0)  -->
<svg version="1.1" id="Layer_1" xmlns="http://www.w3.org/2000/svg" xmlns:xlink="http://www.w3.org/1999/xlink" x="0px" y="0px"
	 viewBox="0 0 512 512" style="enable-background:new 0 0 512 512;" xml:space="preserve">
<style type="text/css">
	.st0{fill:#CCCCCC;}
</style>
<g>
	<path class="st0" d="M256.9,430.8c-37.2,0-74.3,0-111.5,0c-12.1,0-15.7-3.6-15.8-15.8c-0.1-18.5-0.2-36.9,5.1-55
		c17.6-59.9,76.9-98.7,138.8-90.3c62.8,8.5,109,60,110.7,123.5c0.2,7.5,0.1,15,0.1,22.5c0,11.1-3.9,15.1-15,15.1
		C331.9,430.8,294.4,430.8,256.9,430.8z"/>
	<path class="st0" d="M256.9,245.2c-44.8,0-80.9-36.1-80.9-81c0-44.7,36.4-81.1,81-81.1c44.7,0.1,81,36.5,81,81.2
		C338,209,301.7,245.3,256.9,245.2z"/>
	<path class="st0" d="M477,234c0.1,31.9-25.8,57.9-57.8,58c-31.8,0.1-57.9-26-58-57.8c-0.1-31.7,26-57.9,57.9-58
		C450.9,176,476.9,202,477,234z"/>
	<path class="st0" d="M94.9,176c31.8,0,57.8,26.1,57.8,58c0,31.7-26.2,57.8-58,57.9c-31.8,0-57.7-26-57.7-58
		C37,201.9,62.9,176,94.9,176z"/>
	<path class="st0" d="M406.3,430.7c3.6-38.4,1.3-75.3-18.7-109.5c20.9-8.3,41.4-8.6,61.7-0.4c30.3,12.1,50.2,41.1,50.7,73.6
		c0.1,8,0.1,16,0,24c-0.1,7.1-4.2,12.2-11.1,12.2C461.5,430.9,434.1,430.7,406.3,430.7z"/>
	<path class="st0" d="M126.3,321.4c-20.1,34.2-22.2,70.9-18.7,109.1c-1.4,0.1-3,0.2-4.6,0.2c-24.8,0-49.6,0-74.4,0
		c-10.7,0-14.8-4-14.7-14.8c0.2-14.3-1-28.6,3.1-42.7c13-45.1,62.7-70,106.6-53.2C124.3,320.4,125,320.8,126.3,321.4z"/>
</g>
</svg>
