<?xml version="1.0" encoding="utf-8"?>
<!-- Generator: Adobe Illustrator 22.1.0, SVG Export Plug-In . SVG Version: 6.00 Build 0)  -->
<svg version="1.1" id="Layer_1" xmlns="http://www.w3.org/2000/svg" xmlns:xlink="http://www.w3.org/1999/xlink" x="0px" y="0px"
	 viewBox="0 0 512 512" style="enable-background:new 0 0 512 512;" xml:space="preserve">
<style type="text/css">
	.st0{fill:#B3E59F;}
</style>
<g>
	<path class="st0" d="M465,324.3c-13.6,19.5-26.2,39.5-40.7,58.2c-25.6,33-68.1,38.3-99.6,13.5c-2.8-2.2-5.3-4.7-8.3-7.4
		c-12.5,10.4-22.2,22.8-29.6,37.1c-3,5.9-6.2,12-10.7,16.7c-6.5,6.9-15.1,8.8-24.4,6c-9.5-2.9-15.4-9.3-17.8-18.8
		c-0.6-2.5-1-5.2-0.9-7.8c2.5-71.9,5.4-143.7,23.5-214c8-31.1,19.2-60.4,38.8-86.2c-0.5-0.6-1-1.3-1.6-1.9
		c-9.3,6.4-19.2,12-27.8,19.2c-24.7,20.8-35.2,48.5-37.6,80c-0.6,8.7-5.4,13.8-12.3,12.5c-3.9-0.7-8.3-3.9-10.5-7.2
		c-34.8-54.7-10.8-119.8,51.9-138.4c21.6-6.4,44.4-8.4,66.8-11.9c15.9-2.5,32.5-2.1,47.2-11.6c7.7,45.3,13.7,90-5.5,133.7
		c-12.1,27.6-29.8,50-58.2,62.3c-5.6,2.4-12,3.1-17.7,5.2c-2.3,0.9-5.5,3.4-5.7,5.4c-3.4,36.1-6.4,72.3-9.4,108.5
		c0,0.4,0.2,0.9,0.7,2.5c30.5-34.6,68.5-53.5,114.2-56.8c-21.1-4-42-3.8-62.7,0.9c-4.4,1-8.8,2.4-13.2,3.3c-9.2,2-12.5-1.7-10.2-11
		c6.1-24.4,36.6-45.3,64.5-44.7c18.2,0.4,34.1,6.8,48.6,17.1C433,300,448.6,312.1,465,324.3z"/>
	<path class="st0" d="M47,322.9c21.7-14.5,42.4-30.9,65.4-43c30-15.8,63.7-8.8,83.6,14.7c5.7,6.8,9.7,15.2,13.4,23.4
		c1.3,2.7,0.5,8.4-1.5,10.1c-2.4,2.1-7.7,2.7-10.9,1.6c-16.6-5.6-33.5-9.6-51.1-9.6c-10.6,0-21.3,1-33.8,1.7
		c16.5,3.7,31.1,6.1,45.1,10.5c10.8,3.4,21.2,8.6,31.1,14.3c17,9.7,19.5,25.3,7.5,41c-21.7,28.3-68.5,32.5-95.9,7.2
		c-11.7-10.9-21-24.6-30.6-37.6C61.5,346.5,54.9,335.1,47,322.9z"/>
</g>
</svg>
