<?xml version="1.0" encoding="utf-8"?>
<!-- Generator: Adobe Illustrator 22.1.0, SVG Export Plug-In . SVG Version: 6.00 Build 0)  -->
<svg version="1.1" id="Layer_1" xmlns="http://www.w3.org/2000/svg" xmlns:xlink="http://www.w3.org/1999/xlink" x="0px" y="0px"
	 viewBox="0 0 225.8 71" style="enable-background:new 0 0 225.8 71;" xml:space="preserve">
<style type="text/css">
	.st0{fill:#238B23;}
	.st1{fill:#D3AF38;}
</style>
<g>
	<path class="st0" d="M42,61.9c-2.8,0.3-5.5,0.6-8.2,0.9c0-11.8,0-23.6,0-35.4c-0.1,0-0.1,0-0.2,0c-0.5,2.9-1,5.7-1.4,8.6
		c-1.4,8.9-2.9,17.8-4.3,26.8c-0.1,0.4,0,0.8-0.6,0.9c-2.5,0.3-5.1,0.6-7.8,1c-2.1-12-4.1-23.9-6.2-35.9h-0.1c0,12.2,0,24.4,0,36.8
		c-2.6,0.4-5.1,0.8-7.6,1.2c0-18.5,0-37,0-55.5c4,0,8,0,12.1,0c2.1,12.2,4.1,24.4,6.2,36.6c0.1,0,0.1,0,0.2,0
		c2-12.2,3.9-24.4,5.9-36.6c4.1,0,8.1,0,12.1,0C42,28,42,44.9,42,61.9z"/>
	<path class="st0" d="M220.3,38.8c0,4.9,0,9.7,0,14.6c0,1.6-0.2,3.1-0.5,4.6c-1.2,4.8-4.5,7.4-9.6,7.5c-2.9,0.1-5.7-0.5-8.3-1.7
		c-5.4-2.4-7.9-6.8-8-12.5c-0.2-9.6-0.1-19.1-0.1-28.7c0-6.9,4.2-11.4,11.1-12.1c2.2-0.2,4.4-0.2,6.5,0.4c4.9,1.3,8,5,8.7,10.2
		c0.2,1.3,0.2,2.5,0.2,3.8C220.3,29.6,220.3,34.2,220.3,38.8z M211.5,38.2c0-3.8,0-7.7,0-11.5c0-1.4,0-2.8,0-4.2
		c-0.2-2.9-2-4.5-4.7-4.4s-4.1,1.7-4.1,4.6c0,0.1,0,0.2,0,0.3c0,9.5,0,19,0,28.5c0,0.9,0.1,1.8,0.3,2.7c0.6,2.2,2.9,3.7,5.4,3.4
		c2.1-0.2,3.2-1.5,3.2-4.2C211.6,48.4,211.5,43.3,211.5,38.2z"/>
	<path class="st1" d="M95.8,58.6c-3.1,0-5.9,0-8.8,0c0-15.8,0-31.6,0-47.2c0.2-0.3,0.4-0.3,0.6-0.3c5,0,10-0.1,14.9,0.1
		c2.8,0.1,5.4,0.7,7.6,2.7c1.8,1.6,2.7,3.7,2.9,6.1c0.2,2.6,0.3,5.1,0,7.7c-0.3,3.5-2,6.1-5.4,7.6c0.9,0.5,1.7,0.8,2.3,1.3
		c2.2,1.8,3.1,4.2,3.2,6.9c0.1,2.9,0,5.8,0.1,8.7c0.1,2,0,4.1,0.9,5.9c-0.3,0.4-0.6,0.3-1,0.3c-2.4,0-4.7,0-7.1,0.1
		c-0.6,0-0.9-0.2-1.1-0.8c-0.5-1.5-0.5-3-0.5-4.6c-0.1-3.1,0-6.1-0.1-9.2c-0.1-3.1-1.8-4.6-4.9-4.7c-1.2,0-2.3,0-3.6,0
		C95.8,45.6,95.8,52,95.8,58.6z M95.8,17.9c0,4.9,0,9.7,0,14.4c1.4,0,2.8,0.1,4.1,0c2.6-0.2,4.2-1.6,4.3-3.9c0.1-2.3,0.1-4.6,0-6.9
		s-1.5-3.5-3.7-3.6C99,17.8,97.4,17.9,95.8,17.9z"/>
	<path class="st1" d="M181.4,32.3c0,2.5,0,4.8,0,7.3c-3.9-0.2-7.8-0.4-11.8-0.6c0,4.8,0,9.6,0,14.4c2.8,0.2,5.5,0.4,8.2,0.7
		c2,0.2,4,0.3,6,0.5c0.4,0,0.8,0,0.8,0.6c0,2.2,0,4.5,0,6.9c-7.9-0.8-15.8-1.5-23.8-2.1c0-16.3,0-32.5,0-48.8c7.8,0,15.6,0,23.7,0
		c0.2,2.4,0.1,4.8,0.1,7.1c-5.1,0-10,0-15,0c0,4.5,0,9,0,13.6C173.4,32,177.3,32.2,181.4,32.3z"/>
	<path class="st0" d="M76.8,52.2c0,2.4,0,4.6,0,6.9c-7.9,0.4-15.8,1-23.7,1.7c0-16.6,0-33.1,0-49.7c8,0,15.8,0,23.8,0
		c0,2.3,0,4.5,0,6.9c-5,0-9.9,0-15,0c0,4.6,0,9.1,0,13.5c3.9,0,7.8,0,11.8,0c0,2.2,0,4.4,0,6.8c-3.9,0.1-7.8,0.3-11.8,0.4
		c0,4.8,0,9.5,0,14.3C66.8,52.8,71.8,52.5,76.8,52.2z"/>
	<path class="st1" d="M123.7,58.4c0-10.9,0-21.6,0-32.4c3,0.9,5.6,0.1,8.2-1.5c-0.2,2-0.5,3.9,0,5.7c0.6,2.1,0.5,4.2,0.5,6.3
		c0,4.6,0,9.2,0,13.8c0,0.4,0,0.8,0,1.3c2.2,0.2,4.4,0.4,6.5,0.1c1.7-0.3,2.7-1.5,2.7-3.4c0.1-3.7,0-7.3,0-11c0-0.6,0-1.3,0-1.9
		c-0.1-1.5,0.1-2.8,1-4.1c1.3-2,1-4.3,0.6-6.7c2.3,1.2,4.7,1.7,7.1,1.9c0,0.1,0.1,0.3,0.1,0.4c0,7.2,0.1,14.5,0,21.7
		c-0.1,6-3.9,9.7-9.8,10.1c-4.5,0.3-9-0.2-13.5-0.2C125.9,58.4,124.8,58.4,123.7,58.4z"/>
	<path class="st0" d="M141.4,22.7c0.1,1,0.3,1.8,0.1,2.7c-0.3,1.9-1.3,3.3-2.9,4.3c-0.7,0.4-1.3,0.9-1.1,1.8
		c-1.2,0.3-2.1-0.1-2.9-1.3c-1.2-1.9-1.7-4-1.5-6.3c0-0.4,0.1-0.7,0.1-1.1c-0.4-0.2-0.7,0.1-0.9,0.2c-2.6,1.2-4.9,0.9-7-1
		c-0.5-0.4-0.9-0.9-1.7-0.5c-0.6,0.3-0.7-0.4-0.8-0.8c-0.1-1,0.4-1.7,1.1-2.4c1.8-1.9,4-2.9,6.5-3.3c0-0.4-0.4-0.6-0.6-0.9
		c-1.9-2.1-2.1-4.4-1.1-6.9c0.3-0.6,0.7-1.1,0-1.8c-0.4-0.4,0.2-0.8,0.6-0.9c1-0.3,2,0,2.9,0.5c2,1.1,3.5,2.8,4.5,4.9
		c0.3,0,0.3-0.2,0.4-0.3c1.3-2.6,3.5-3.7,6.4-3.5c0.6,0,1.2,0.2,1.7-0.5c0.4-0.6,0.9,0,1.2,0.4c0.6,0.9,0.6,1.8,0.4,2.8
		c-0.5,2.3-1.5,4.3-3.3,6c0.4,0.1,0.7,0.2,1,0.3c2.7,0.5,4.3,2.1,5,4.8c0.2,0.6,0.2,1.3,1.1,1.5c0.6,0.2,0.3,0.8,0.1,1.1
		c-0.5,0.7-1.2,1-2,1.2c-2.1,0.5-4.2,0.2-6.2-0.6C142.2,23.1,141.8,22.9,141.4,22.7z"/>
	<path class="st1" d="M123.6,15.1c0-1.4,0-2.6,0-4c1.2-0.2,2.3-0.4,3,1c0.3,0.6,1,1.1,1.5,1.8C126.5,14.2,125,14.5,123.6,15.1z"/>
</g>
</svg>
