<?xml version="1.0" encoding="utf-8"?>
<!-- Generator: Adobe Illustrator 22.1.0, SVG Export Plug-In . SVG Version: 6.00 Build 0)  -->
<svg version="1.1" id="Layer_1" xmlns="http://www.w3.org/2000/svg" xmlns:xlink="http://www.w3.org/1999/xlink" x="0px" y="0px"
	 viewBox="0 0 512 512" style="enable-background:new 0 0 512 512;" xml:space="preserve">
<style type="text/css">
	.st0{fill:#EDC966;}
</style>
<g>
	<path class="st0" d="M408.3,330c-32.8,18.7-65.6,37.3-99.1,56.4c-2.9-18.1,0.4-34.3,13.2-46.8c7.6-7.4,17.3-12.7,26.5-18.4
		c13.8-8.6,28.5-15.9,41.8-25.3c17.2-12.3,29.2-29.4,39.2-47.9c1.1-2,1.8-4.5,3.3-6.1c1.8-1.9,4.2-4.4,6.4-4.4
		c2.2,0,5.6,2.3,6.3,4.4c4.7,13.1,10.3,26.1,12.9,39.7c9.6,50.7-3.3,96.8-31.8,138.8c-16.4,24.2-50.2,31.5-78.4,18
		c-10.5-5.1-19.7-11.8-26.4-21.6c-1.7-2.5-3.3-2.8-6.2-2.3c-18.7,3.6-37.4,3.5-56.2,0.8c-4.3-0.6-6.6-3.2-6.4-7.5
		c0.2-3.7,3.6-6,7.9-5.8c1.2,0.1,2.3,0.3,3.5,0.5c20,2.9,39.9,2.5,59.4-3.1c29.8-8.5,52.8-26.8,71.9-50.6
		c4.6-5.8,8.8-11.9,13.2-17.8C409,330.6,408.6,330.3,408.3,330z"/>
	<path class="st0" d="M335.5,181.5c-18.6,14.2-38,18-58.9,7.8c-9.2-4.5-18-10.1-26.5-15.9c-29.7-20.5-62.5-29.8-98.6-27.5
		c-1,0.1-2.1,0.4-3,0c-2.5-0.9-6-1.5-7-3.4s-0.6-6,0.9-7.8c8.6-10.2,16.7-20.9,26.7-29.6c37.7-32.7,82.2-44.2,131.5-42.6
		c30.6,1,54.5,24.4,59.9,52c2.7,13.8,1.2,27.2-4.5,40c-1.3,2.9-1.2,4.9,1.1,7.5c12.3,13.8,21.4,29.6,28.1,46.8
		c2.2,5.8,1.3,9.3-3,10.9c-3.9,1.4-7.1-0.6-9.3-5.9c-13.2-32.6-33.9-58.6-66.1-74.4c-21.1-10.4-43.7-14.9-67-16.3
		c-0.8,0-1.7,0-2.5,0.1c-0.1,0-0.1,0.2-0.5,0.8C269.6,143,302.3,162.1,335.5,181.5z"/>
	<path class="st0" d="M145.2,374.6c0-37.8,0-75.5,0-114.3c2.4,0.9,4,1.4,5.6,2.1c20.5,10.2,30.5,27.1,31.1,49.7
		c0.2,9.6-0.3,19.3-1.1,29c-2.9,34.2,5.6,65.3,23.8,94.1c1.2,1.8,2.8,3.5,3.4,5.5c0.7,2.5,1.4,5.8,0.3,7.8c-0.9,1.7-4.4,2.9-6.7,2.8
		c-21.2-1.2-41.2-7.4-60.1-17c-38.9-19.7-66.4-50.4-84.4-89.5c-14.9-32.2,4.3-72.4,39.8-84.7c5.2-1.8,10.6-3.1,16-3.9
		c3.1-0.5,4.5-1.8,5.4-4.7c5.8-17.4,14.9-33,26.3-47.3c0.4-0.5,0.8-1,1.3-1.5c2.7-3.1,6-3.7,9.3-1.4c3.6,2.5,3.1,6.1,1,9.3
		c-3.4,5.1-7.3,10-10.6,15.1c-27.1,41.9-28.6,85.8-9.9,131.1c2.5,6.1,5.5,12.1,8.2,18.1C144.2,374.8,144.7,374.7,145.2,374.6z"/>
</g>
</svg>
