<?xml version="1.0" encoding="utf-8"?>
<!-- Generator: Adobe Illustrator 22.1.0, SVG Export Plug-In . SVG Version: 6.00 Build 0)  -->
<svg version="1.1" id="Layer_1" xmlns="http://www.w3.org/2000/svg" xmlns:xlink="http://www.w3.org/1999/xlink" x="0px" y="0px"
	 viewBox="0 0 512 512" style="enable-background:new 0 0 512 512;" xml:space="preserve">
<style type="text/css">
	.st0{fill:#F49F9C;}
</style>
<g>
	<path class="st0" d="M1,328c0.4-0.3,0.8-0.6,1-0.9c16.1-29.7,32.1-59.4,48.6-89.8c-11.6-6.9-23.1-13.8-34.5-20.7
		c0.1-0.3,0.1-0.6,0.2-1c1.7-0.1,3.5-0.3,5.2-0.4c33.8-1,67.6-2.1,101.4-2.9c1.8,0,4.7,1.2,5.5,2.6c16.1,31.6,32,63.2,47.9,94.9
		c0.1,0.3,0.2,0.6,0.5,2c-12.9-7.6-25.1-14.7-38-22.3c-14.2,25.7-28.3,51.2-43,77.6c52.8,0,104.8,0,157.1,0c0,35.3,0,69.8,0,104.9
		c-2.2,0-4.1,0-6.1,0c-43.8,0-87.7-0.5-131.5,0.2c-19.7,0.3-33.8-8-44.1-23.3c-9.7-14.3-18.5-29.3-27.2-44.2
		C30.5,381.3,17.2,357.6,3.8,334c-0.8-1.4-1.8-2.7-2.8-4C1,329.3,1,328.7,1,328z"/>
	<path class="st0" d="M513,323c-5.1,22.6-19,40.8-30.4,60.2c-14.9,25.2-30.9,49.8-46.3,74.8c-1.7,2.7-3.6,3.3-6.5,3.3
		c-31.2-0.1-62.3,0-93.5,0c-2,0-3.9,0-6.5,0c-0.6,13.8-1.2,27.2-1.9,41.9c-1.4-2.2-2.1-3.2-2.7-4.3c-17.2-29.7-34.4-59.4-51.6-89
		c-1.3-2.2-2.4-4-0.4-6.7c20-27.2,39.9-54.6,59.9-81.9c0.3-0.5,0.8-0.9,1.4-1.5c0,13.1,0,25.9,0,39.2c29,0,58.1,0,87.9,0
		c-24.8-45.9-49.5-91.7-74.5-138c30.6-16.6,61.1-33.1,91.8-49.7c1.1,1.9,2.1,3.4,2.9,4.9c21.5,39.7,43,79.3,64.3,119.1
		c2.5,4.6,4.1,9.8,6.1,14.7C513,314.3,513,318.7,513,323z"/>
	<path class="st0" d="M398.5,98.9c11.8-6.8,23.4-13.4,35.9-20.5c-0.8,2.1-1.1,3.3-1.7,4.3c-16.1,30.5-32.2,60.9-48.2,91.4
		c-1.4,2.7-2.9,3.8-6.1,3.6c-31.9-2-63.9-3.9-95.8-5.8c-2.6-0.2-5.3-0.4-8.3-1.6c11.6-6.7,23.2-13.4,35.2-20.3
		c-15.5-25.3-30.8-50.2-46.5-75.8c-26.1,46.1-51.8,91.3-77.7,137.1c-30.4-17.2-60.6-34.3-91-51.5c1-1.9,1.9-3.5,2.8-5.1
		c21.4-37.8,43.4-75.3,64-113.6c10.5-19.6,26.5-28.3,47.2-28.8c43.8-1.1,87.6-1.3,131.4-1.7c1.9,0,4.4,1.9,5.6,3.7
		c16.8,26.4,33.4,53,50,79.5C396.1,95.3,397.1,96.8,398.5,98.9z"/>
</g>
</svg>
